<?xml version="1.0" encoding="UTF-8"?><svg id="Layer_2" xmlns="http://www.w3.org/2000/svg" viewBox="0 0 250 250"><defs><style>.cls-1{fill:#fff;}.cls-2{fill:none;stroke:#39a455;stroke-miterlimit:10;stroke-width:2.28px;}.cls-3{font-family:CeraPro-Bold, 'Cera Pro';font-size:28px;}.cls-3,.cls-4{fill:#39a455;}</style></defs><rect class="cls-1" x="0" width="250" height="137.78"/><rect class="cls-4" x="106.2" y="17.77" width="2.29" height="7.28" rx="1.15" ry="1.15"/><rect class="cls-4" x="141.5" y="17.77" width="2.29" height="7.28" rx="1.15" ry="1.15"/><rect class="cls-4" x="123.85" y="7.25" width="2.29" height="55.72" rx="1.15" ry="1.15" transform="translate(160.11 -89.89) rotate(90)"/><g><rect class="cls-4" x="131.49" y="42.34" width="7.18" height="7.18" rx="1.75" ry="1.75"/><rect class="cls-4" x="121.58" y="42.34" width="7.18" height="7.18" rx="1.75" ry="1.75"/><rect class="cls-4" x="111.33" y="42.34" width="7.18" height="7.18" rx="1.75" ry="1.75"/><rect class="cls-4" x="141.75" y="42.34" width="7.18" height="7.18" rx="1.75" ry="1.75"/><rect class="cls-4" x="121.58" y="52.6" width="7.18" height="7.18" rx="1.75" ry="1.75"/><rect class="cls-4" x="111.33" y="52.6" width="7.18" height="7.18" rx="1.75" ry="1.75"/><rect class="cls-4" x="101.08" y="52.6" width="7.18" height="7.18" rx="1.75" ry="1.75"/><rect class="cls-4" x="141.75" y="52.6" width="7.18" height="7.18" rx="1.75" ry="1.75"/><rect class="cls-4" x="131.49" y="62.86" width="7.18" height="7.18" rx="1.75" ry="1.75"/><rect class="cls-4" x="121.58" y="62.86" width="7.18" height="7.18" rx="1.75" ry="1.75"/><rect class="cls-4" x="111.33" y="62.86" width="7.18" height="7.18" rx="1.75" ry="1.75"/><rect class="cls-4" x="101.08" y="62.86" width="7.18" height="7.18" rx="1.75" ry="1.75"/><rect class="cls-4" x="141.75" y="62.86" width="7.18" height="7.18" rx="1.75" ry="1.75"/><path class="cls-4" d="M138.03,52.6h-5.9c-.35,0-.64,.29-.64,.64v5.9c0,.35,.29,.64,.64,.64h5.9c.35,0,.64-.29,.64-.64v-5.9c0-.35-.29-.64-.64-.64Zm-.51,2.44l-3.01,3.01c-.16,.16-.43,.16-.6,0l-.05-.05-.13-.14h0l-1.11-1.27c-.15-.17-.14-.44,.04-.6l.13-.11c.17-.15,.44-.14,.6,.04l.86,.97,2.57-2.57c.16-.16,.43-.16,.6,0l.12,.12c.16,.16,.16,.43,0,.6Z"/></g><rect class="cls-2" x="97.46" y="21.42" width="55.07" height="55.07" rx="8.32" ry="8.32"/><text class="cls-3" transform="translate(20.5 114.35)"><tspan x="0" y="0">APPOINTMENTS</tspan></text></svg>