<?xml version="1.0" encoding="UTF-8"?><svg id="Layer_2" xmlns="http://www.w3.org/2000/svg" viewBox="0 0 250 250"><defs><style>.cls-1{fill:#65bdbd;fill-rule:evenodd;}</style></defs><path class="cls-1" d="M125,202.17c-42.62,0-77.16-34.55-77.16-77.16S82.38,47.84,125,47.84s77.16,34.56,77.16,77.17-34.54,77.16-77.16,77.16m0-170.02c51.28,0,92.85,41.58,92.85,92.86s-41.58,92.84-92.85,92.84S32.15,176.29,32.15,125.01,73.73,32.15,125,32.15h0Zm0,31.38c-4.34,0-7.84,3.52-7.84,7.86v53.54c-.01,2.04,.73,4.08,2.29,5.64l37.91,37.9c1.53,1.54,3.53,2.3,5.54,2.3s4.01-.76,5.54-2.3c3.06-3.06,3.06-8.03,0-11.09l-35.6-35.6v-50.39c0-4.34-3.5-7.86-7.85-7.86h0Z"/></svg>