<?xml version="1.0" encoding="UTF-8"?><svg id="Layer_2" xmlns="http://www.w3.org/2000/svg" viewBox="0 0 250 250"><defs><style>.cls-1{fill:#65bdbd;stroke:#65bdbd;stroke-miterlimit:10;stroke-width:7px;}</style></defs><path class="cls-1" d="M122.27,217.09c.62,.9,1.65,1.44,2.74,1.44s2.12-.54,2.75-1.44c.37-.57,39.68-58.51,53.7-81.83,6.89-10.96,10.62-23.61,10.78-36.55-.02-17.83-7.12-34.92-19.72-47.52-12.6-12.6-29.69-19.7-47.52-19.72-17.83,.02-34.92,7.12-47.52,19.72-12.6,12.6-19.7,29.69-19.72,47.52,.16,12.94,3.89,25.58,10.78,36.53,14.09,23.32,53.33,81.26,53.72,81.85h0Zm2.73-179c16.07,.02,31.48,6.42,42.84,17.78,11.36,11.36,17.76,26.77,17.78,42.84-.17,11.72-3.57,23.16-9.83,33.07-11.82,19.58-41.6,63.93-50.7,77.49-9.17-13.6-38.98-57.91-50.7-77.49h0c-6.32-9.89-9.79-21.33-10.01-33.07,.02-16.07,6.42-31.48,17.78-42.84,11.36-11.36,26.77-17.76,42.84-17.78h0Z"/><path class="cls-1" d="M125,130.52c8.48,0,16.61-3.37,22.6-9.36s9.36-14.13,9.36-22.6-3.37-16.61-9.36-22.6c-5.99-5.99-14.13-9.36-22.6-9.36s-16.61,3.37-22.6,9.36c-6,6-9.36,14.13-9.36,22.6,.01,8.47,3.38,16.6,9.38,22.59,5.99,5.99,14.12,9.36,22.59,9.37Zm0-57.32h0c6.72,0,13.17,2.67,17.93,7.43,4.75,4.75,7.43,11.2,7.43,17.93s-2.67,13.17-7.43,17.93-11.2,7.43-17.93,7.43-13.17-2.67-17.93-7.43c-4.75-4.75-7.43-11.2-7.43-17.93,0-6.72,2.68-13.17,7.43-17.92,4.75-4.75,11.2-7.43,17.92-7.43h0Z"/></svg>